<svg preserveAspectRatio="none" overflow="visible" style="display: block;" width="16.7766" height="1.30803" viewBox="0 0 16.7766 1.30803" fill="none" xmlns="http://www.w3.org/2000/svg">
<path id="Line 113" d="M0 0.654015C0 1.01522 0.292812 1.30803 0.654015 1.30803C1.01522 1.30803 1.30803 1.01522 1.30803 0.654015C1.30803 0.292812 1.01522 0 0.654015 0C0.292812 0 0 0.292812 0 0.654015ZM16.654 0.776642C16.7217 0.776642 16.7766 0.72174 16.7766 0.654015C16.7766 0.586289 16.7217 0.531387 16.654 0.531387V0.654015V0.776642ZM0.654015 0.654015V0.776642H1.15401V0.654015V0.531387H0.654015V0.654015ZM2.15401 0.654015V0.776642H3.15401V0.654015V0.531387H2.15401V0.654015ZM4.15401 0.654015V0.776642H5.15401V0.654015V0.531387H4.15401V0.654015ZM6.15401 0.654015V0.776642H7.15401V0.654015V0.531387H6.15401V0.654015ZM8.15401 0.654015V0.776642H9.15401V0.654015V0.531387H8.15401V0.654015ZM10.154 0.654015V0.776642H11.154V0.654015V0.531387H10.154V0.654015ZM12.154 0.654015V0.776642H13.154V0.654015V0.531387H12.154V0.654015ZM14.154 0.654015V0.776642H15.154V0.654015V0.531387H14.154V0.654015ZM16.154 0.654015V0.776642H16.654V0.654015V0.531387H16.154V0.654015Z" fill="#4E4E4E"/>
</svg>
