<svg preserveAspectRatio="none" overflow="visible" style="display: block;" width="107" height="32" viewBox="0 0 107 32" fill="none" xmlns="http://www.w3.org/2000/svg">
<g id="WareIQ Logo 1" clip-path="url(#clip0_0_24)">
<path id="Vector" d="M51.5342 15.2736C51.1797 16.4341 50.9021 17.4275 50.7014 18.2539C50.5014 19.0848 50.4067 19.5243 50.4067 19.5595L49.8515 17.6448L48.0432 11.4581H44.7542L43.8469 14.5515C43.0512 17.3419 42.5651 19.013 42.3886 19.5648C42.3886 19.5083 42.2886 19.0688 42.0897 18.2592C41.8907 17.4496 41.612 16.432 41.2568 15.2789L40.0027 11.1371H36.7733L40.9696 24.3509H43.8895L44.6883 21.7408C44.9925 20.7925 45.3265 19.6651 45.686 18.3595C46.0456 17.0539 46.2849 16.1835 46.3976 15.7792C46.5076 16.2059 46.7504 17.0763 47.1263 18.3904C47.5039 19.696 47.8336 20.8139 48.124 21.7621L48.9048 24.3733H51.8246L56.0156 11.1595H52.8086L51.5342 15.2736Z" fill="url(#paint0_linear_0_24)"/>
<path id="Vector_2" d="M63.8498 15.9552C63.4685 15.5339 62.9976 15.2042 62.4718 14.9903C61.9461 14.7765 61.3792 14.6841 60.813 14.72C59.9656 14.7047 59.1301 14.9211 58.3962 15.3461C57.6915 15.7697 57.1212 16.3852 56.7517 17.1211C56.3471 17.9443 56.1461 18.8531 56.1656 19.7707C56.1472 20.6475 56.3345 21.5163 56.7124 22.3072C57.052 23.0098 57.5869 23.5992 58.2526 24.0043C58.9452 24.4166 59.7385 24.6275 60.5438 24.6133C61.1721 24.6183 61.7949 24.4953 62.3744 24.2517C62.8862 24.0448 63.335 23.7072 63.6764 23.2725V24.3477H66.4314V15.0485H64.0275L63.8498 15.9552ZM62.934 21.3685C62.7221 21.5847 62.4674 21.754 62.1864 21.8657C61.9054 21.9774 61.6043 22.029 61.3022 22.0171C61.0057 22.0282 60.7102 21.9761 60.4351 21.8643C60.1601 21.7525 59.9118 21.5836 59.7067 21.3685C59.3192 20.8866 59.1079 20.2862 59.1079 19.6672C59.1079 19.0482 59.3192 18.4478 59.7067 17.9659C59.9124 17.7489 60.1622 17.5788 60.4391 17.4669C60.716 17.355 61.0136 17.304 61.3119 17.3173C61.6133 17.3043 61.914 17.3546 62.195 17.4648C62.476 17.575 62.7309 17.7427 62.9436 17.9573C63.1567 18.1816 63.3222 18.4468 63.4303 18.737C63.5383 19.0273 63.5866 19.3364 63.5722 19.6459C63.5858 19.9608 63.5365 20.2752 63.4271 20.5707C63.3176 20.8662 63.1503 21.1367 62.9351 21.3664L62.934 21.3685Z" fill="url(#paint1_linear_0_24)"/>
<path id="Vector_3" d="M72.268 15.3045C71.883 15.5256 71.5938 15.8821 71.4564 16.3051L71.2702 15.0475H68.6408V24.3456H71.5127V19.9947C71.4929 19.6611 71.5421 19.327 71.657 19.0133C71.772 18.6996 71.9503 18.4131 72.1808 18.1717C72.4387 17.9421 72.7396 17.7661 73.0659 17.6541C73.3922 17.542 73.7374 17.4961 74.0816 17.5189C74.2266 17.5168 74.3715 17.5239 74.5156 17.5403V15.0517C74.2298 14.9948 73.9389 14.9673 73.6476 14.9696C73.1649 14.9582 72.6878 15.0752 72.2648 15.3088L72.268 15.3045Z" fill="url(#paint2_linear_0_24)"/>
<path id="Vector_4" d="M81.5382 22.0267C81.1742 22.2049 80.773 22.293 80.3681 22.2837C79.8335 22.306 79.3095 22.1294 78.897 21.7877C78.7108 21.6244 78.5606 21.4239 78.4561 21.1991C78.3515 20.9743 78.2948 20.7301 78.2896 20.4821H84.8675C84.9563 20.069 84.9984 19.6471 84.9931 19.2245C85.007 18.413 84.8046 17.6125 84.4069 16.9056C84.017 16.2255 83.4422 15.6706 82.7497 15.3056C81.996 14.9087 81.1544 14.7094 80.3032 14.7264C79.4292 14.7134 78.5662 14.923 77.795 15.3355C77.0598 15.7341 76.4565 16.339 76.059 17.0763C75.6539 17.882 75.4428 18.7718 75.4428 19.6741C75.4428 20.5765 75.6539 21.4663 76.059 22.272C76.4602 23.0065 77.0625 23.6106 77.795 24.0128C78.5854 24.4372 79.4717 24.6499 80.3681 24.6304C81.46 24.6586 82.5336 24.3455 83.44 23.7344C83.8455 23.4663 84.1935 23.1195 84.4633 22.7144C84.7331 22.3094 84.9194 21.8543 85.0111 21.376H82.2168C82.0692 21.6614 81.8312 21.8896 81.5403 22.0245L81.5382 22.0267ZM78.8789 17.4795C79.2655 17.2102 79.725 17.0658 80.1958 17.0658C80.6665 17.0658 81.126 17.2102 81.5126 17.4795C81.6802 17.612 81.8153 17.7813 81.9075 17.9743C81.9997 18.1674 82.0465 18.379 82.0444 18.5931H78.3215C78.3257 18.3791 78.3764 18.1685 78.4701 17.9762C78.5638 17.7838 78.6982 17.6143 78.864 17.4795H78.8789Z" fill="url(#paint3_linear_0_24)"/>
<path id="Vector_5" d="M90.9232 11.1317H87.9204V24.3456H90.9232V11.1317Z" fill="url(#paint4_linear_0_24)"/>
<path id="Vector_6" d="M106.084 14.1387C105.485 13.1065 104.608 12.2639 103.555 11.7067C102.429 11.1169 101.175 10.8178 99.905 10.8363C98.629 10.8103 97.3675 11.1098 96.2385 11.7067C95.186 12.2661 94.3121 13.1121 93.7175 14.1472C93.1031 15.2401 92.7916 16.4779 92.8155 17.7323C92.7981 18.8418 93.0404 19.94 93.5229 20.9387C93.9797 21.8735 94.6611 22.6799 95.5056 23.2853C96.3792 23.9085 97.3873 24.3157 98.4478 24.4736V25.6139C98.4478 27.8503 99.6179 28.97 101.958 28.9728C102.484 28.9727 103.009 28.9096 103.521 28.7851V26.4139C103.263 26.4609 103.002 26.4826 102.74 26.4789C102.53 26.5093 102.317 26.4926 102.114 26.4301C101.912 26.3676 101.726 26.2607 101.57 26.1173C101.374 25.8137 101.28 25.4554 101.301 25.0944V24.4981C102.372 24.3407 103.39 23.9305 104.273 23.3013C105.123 22.6892 105.811 21.8781 106.278 20.9387C106.783 19.8717 107.029 18.6997 106.996 17.5189C106.962 16.3381 106.649 15.1822 106.083 14.1461L106.084 14.1387ZM103.319 19.8517C103.002 20.4544 102.52 20.9539 101.93 21.2917C101.313 21.6418 100.613 21.8204 99.904 21.8091C99.1907 21.822 98.4864 21.6481 97.8606 21.3045C97.2678 20.9724 96.7853 20.4732 96.4725 19.8688C96.1435 19.2061 95.9722 18.4758 95.9722 17.7355C95.9722 16.9951 96.1435 16.2649 96.4725 15.6021C96.7954 14.9983 97.2813 14.4978 97.8745 14.1579C98.4979 13.8074 99.2033 13.6303 99.9179 13.6448C100.623 13.6303 101.319 13.8076 101.931 14.1579C102.519 14.4984 102.999 14.9992 103.314 15.6021C103.637 16.2632 103.805 16.9894 103.805 17.7253C103.805 18.4613 103.637 19.1875 103.314 19.8485L103.319 19.8517Z" fill="url(#paint5_linear_0_24)"/>
<path id="Vector_7" d="M28.1435 23.0368V8.9568C28.1441 8.61919 28.0558 8.28742 27.8877 7.9949C27.7197 7.70238 27.4777 7.45947 27.1861 7.29067L15.0365 0.250659C14.7435 0.0839553 14.4123 -0.00367083 14.0754 -0.00367083C13.7386 -0.00367083 13.4074 0.0839553 13.1144 0.250659L0.964778 7.29067C0.672539 7.45924 0.429644 7.70192 0.26049 7.99436C0.0913367 8.2868 0.00186885 8.61872 0.00105695 8.9568V23.0368C0.00229789 23.3748 0.091964 23.7065 0.261075 23.9989C0.430185 24.2913 0.672827 24.534 0.964778 24.7029L13.1144 31.7429C13.406 31.9138 13.7377 32.0038 14.0754 32.0038C14.4132 32.0038 14.7449 31.9138 15.0365 31.7429L20.9805 28.3051C21.01 28.2849 21.0448 28.2742 21.0805 28.2742C21.1161 28.2742 21.151 28.2849 21.1805 28.3051L25.0417 31.1029C25.0716 31.124 25.1073 31.1353 25.1438 31.1353C25.1804 31.1353 25.216 31.124 25.246 31.1029L27.3637 29.7973C27.389 29.7802 27.4096 29.7572 27.4239 29.7302C27.4382 29.7033 27.4457 29.6732 27.4457 29.6427C27.4457 29.6121 27.4382 29.5821 27.4239 29.5551C27.4096 29.5281 27.389 29.5051 27.3637 29.488L23.8269 26.9205C23.8008 26.9036 23.7793 26.8804 23.7645 26.853C23.7496 26.8256 23.7418 26.7949 23.7418 26.7637C23.7418 26.7325 23.7496 26.7019 23.7645 26.6745C23.7793 26.6471 23.8008 26.6239 23.8269 26.6069L27.1638 24.6752C27.455 24.511 27.6985 24.2736 27.8703 23.9863C28.0421 23.699 28.1362 23.3717 28.1435 23.0368ZM2.74225 9.33547L13.976 2.80854C14.0041 2.79172 14.0363 2.78285 14.0691 2.78285C14.1019 2.78285 14.134 2.79172 14.1621 2.80854L24.1418 8.57813C24.1708 8.5943 24.195 8.61796 24.2119 8.64666C24.2287 8.67535 24.2376 8.70804 24.2376 8.74133C24.2376 8.77463 24.2287 8.80733 24.2119 8.83603C24.195 8.86472 24.1708 8.88837 24.1418 8.90453L12.8601 15.1307C12.8313 15.1458 12.8069 15.1682 12.7893 15.1957C12.7718 15.2232 12.7617 15.2548 12.7602 15.2875L12.5219 27.9669C12.5216 27.9994 12.5129 28.0313 12.4966 28.0594C12.4803 28.0874 12.457 28.1107 12.429 28.127C12.401 28.1433 12.3691 28.1519 12.3367 28.1521C12.3043 28.1523 12.2725 28.144 12.2443 28.128L8.6426 26.0789C8.61504 26.062 8.59218 26.0384 8.57619 26.0102C8.56019 25.982 8.55158 25.9503 8.55113 25.9179V13.4592C8.55064 13.4219 8.53873 13.3856 8.51704 13.3553C8.49536 13.325 8.46494 13.302 8.42985 13.2896L6.14715 12.3851C6.11903 12.3744 6.08871 12.3707 6.05885 12.3743C6.029 12.3779 6.00046 12.3887 5.97569 12.4058C5.95091 12.4229 5.93065 12.4458 5.91661 12.4724C5.90256 12.4991 5.89516 12.5288 5.89505 12.5589V24.1632C5.89522 24.1963 5.88657 24.2289 5.87006 24.2575C5.85354 24.2862 5.82973 24.31 5.80104 24.3264C5.77235 24.3428 5.73986 24.3512 5.70684 24.3508C5.67382 24.3505 5.64147 24.3413 5.61315 24.3243L2.74114 22.6624C2.71293 22.6462 2.68958 22.6227 2.67349 22.5944C2.65741 22.5661 2.64917 22.5339 2.64967 22.5013V9.51786C2.64429 9.48144 2.6503 9.44426 2.66687 9.4114C2.68344 9.37855 2.70981 9.35164 2.74225 9.3344V9.33547ZM22.2293 24.1771V19.6608C22.229 19.6299 22.2212 19.5996 22.2064 19.5725C22.1916 19.5455 22.1703 19.5225 22.1444 19.5057C22.1186 19.4889 22.089 19.4788 22.0583 19.4762C22.0277 19.4737 21.9968 19.4789 21.9686 19.4912L19.6859 20.4789C19.6521 20.4922 19.6232 20.5156 19.603 20.546C19.5829 20.5763 19.5724 20.6121 19.5732 20.6485V25.9264C19.5735 25.96 19.5647 25.9931 19.5479 26.0222C19.5311 26.0513 19.5067 26.0753 19.4775 26.0917L15.4247 28.4384C15.3961 28.4556 15.3634 28.4648 15.33 28.465C15.2966 28.4652 15.2638 28.4564 15.235 28.4395C15.2062 28.4226 15.1824 28.3982 15.1662 28.3689C15.15 28.3397 15.1419 28.3065 15.1429 28.2731L15.3556 16.9035C15.3555 16.8705 15.3644 16.838 15.3812 16.8097C15.3981 16.7813 15.4224 16.758 15.4514 16.7424L25.2098 11.3643C25.2382 11.3492 25.27 11.3417 25.3021 11.3426C25.3342 11.3435 25.3656 11.3527 25.3931 11.3693C25.4207 11.386 25.4434 11.4095 25.4592 11.4376C25.4749 11.4657 25.4832 11.4974 25.4831 11.5296V22.5035C25.4836 22.5361 25.4754 22.5682 25.4593 22.5965C25.4432 22.6249 25.4198 22.6483 25.3916 22.6645L22.5196 24.3403C22.4912 24.3621 22.4571 24.3753 22.4214 24.3782C22.3857 24.381 22.3499 24.3735 22.3184 24.3565C22.2868 24.3395 22.2608 24.3137 22.2435 24.2823C22.2262 24.2508 22.2182 24.215 22.2207 24.1792L22.2293 24.1771Z" fill="url(#paint6_linear_0_24)"/>
</g>
<defs>
<linearGradient id="paint0_linear_0_24" x1="46.3945" y1="-35.6267" x2="46.3945" y2="22.56" gradientUnits="userSpaceOnUse">
<stop stop-color="#95F5FF"/>
<stop offset="1" stop-color="#044D82"/>
</linearGradient>
<linearGradient id="paint1_linear_0_24" x1="61.2979" y1="-20.2895" x2="61.2979" y2="23.2674" gradientUnits="userSpaceOnUse">
<stop stop-color="#95F5FF"/>
<stop offset="1" stop-color="#044D82"/>
</linearGradient>
<linearGradient id="paint2_linear_0_24" x1="71.5782" y1="-18.2062" x2="71.5782" y2="23.0704" gradientUnits="userSpaceOnUse">
<stop stop-color="#95F5FF"/>
<stop offset="1" stop-color="#044D82"/>
</linearGradient>
<linearGradient id="paint3_linear_0_24" x1="80.227" y1="-20.3048" x2="80.227" y2="23.265" gradientUnits="userSpaceOnUse">
<stop stop-color="#95F5FF"/>
<stop offset="1" stop-color="#044D82"/>
</linearGradient>
<linearGradient id="paint4_linear_0_24" x1="89.4218" y1="-35.6321" x2="89.4218" y2="22.5485" gradientUnits="userSpaceOnUse">
<stop stop-color="#95F5FF"/>
<stop offset="1" stop-color="#044D82"/>
</linearGradient>
<linearGradient id="paint5_linear_0_24" x1="99.9064" y1="-53.2835" x2="99.9064" y2="26.506" gradientUnits="userSpaceOnUse">
<stop stop-color="#95F5FF"/>
<stop offset="1" stop-color="#044D82"/>
</linearGradient>
<linearGradient id="paint6_linear_0_24" x1="14.0723" y1="0.124359" x2="14.0723" y2="44.1667" gradientUnits="userSpaceOnUse">
<stop stop-color="#95F5FF"/>
<stop offset="1" stop-color="#044D82"/>
</linearGradient>
<clipPath id="clip0_0_24">
<rect width="107" height="32" fill="white"/>
</clipPath>
</defs>
</svg>
